<svg fill="none" height="48" viewBox="0 0 168 48" width="168" xmlns="http://www.w3.org/2000/svg" xmlns:xlink="http://www.w3.org/1999/xlink"><filter id="a" color-interpolation-filters="sRGB" filterUnits="userSpaceOnUse" height="54" width="48" x="0" y="-3"><feFlood flood-opacity="0" result="BackgroundImageFix"/><feBlend in="SourceGraphic" in2="BackgroundImageFix" mode="normal" result="shape"/><feColorMatrix in="SourceAlpha" result="hardAlpha" type="matrix" values="0 0 0 0 0 0 0 0 0 0 0 0 0 0 0 0 0 0 127 0"/><feOffset dy="-3"/><feGaussianBlur stdDeviation="1.5"/><feComposite in2="hardAlpha" k2="-1" k3="1" operator="arithmetic"/><feColorMatrix type="matrix" values="0 0 0 0 0 0 0 0 0 0 0 0 0 0 0 0 0 0 0.1 0"/><feBlend in2="shape" mode="normal" result="effect1_innerShadow_3046_38789"/><feColorMatrix in="SourceAlpha" result="hardAlpha" type="matrix" values="0 0 0 0 0 0 0 0 0 0 0 0 0 0 0 0 0 0 127 0"/><feOffset dy="3"/><feGaussianBlur stdDeviation="1.5"/><feComposite in2="hardAlpha" k2="-1" k3="1" operator="arithmetic"/><feColorMatrix type="matrix" values="0 0 0 0 1 0 0 0 0 1 0 0 0 0 1 0 0 0 0.1 0"/><feBlend in2="effect1_innerShadow_3046_38789" mode="normal" result="effect2_innerShadow_3046_38789"/><feColorMatrix in="SourceAlpha" result="hardAlpha" type="matrix" values="0 0 0 0 0 0 0 0 0 0 0 0 0 0 0 0 0 0 127 0"/><feMorphology in="SourceAlpha" operator="erode" radius="1" result="effect3_innerShadow_3046_38789"/><feOffset/><feComposite in2="hardAlpha" k2="-1" k3="1" operator="arithmetic"/><feColorMatrix type="matrix" values="0 0 0 0 0.0627451 0 0 0 0 0.0941176 0 0 0 0 0.156863 0 0 0 0.24 0"/><feBlend in2="effect2_innerShadow_3046_38789" mode="normal" result="effect3_innerShadow_3046_38789"/></filter><filter id="b" color-interpolation-filters="sRGB" filterUnits="userSpaceOnUse" height="42.0005" width="42" x="3" y="5.25"><feFlood flood-opacity="0" result="BackgroundImageFix"/><feColorMatrix in="SourceAlpha" result="hardAlpha" type="matrix" values="0 0 0 0 0 0 0 0 0 0 0 0 0 0 0 0 0 0 127 0"/><feMorphology in="SourceAlpha" operator="erode" radius="1.5" result="effect1_dropShadow_3046_38789"/><feOffset dy="2.25"/><feGaussianBlur stdDeviation="2.25"/><feComposite in2="hardAlpha" operator="out"/><feColorMatrix type="matrix" values="0 0 0 0 0.141176 0 0 0 0 0.141176 0 0 0 0 0.141176 0 0 0 0.1 0"/><feBlend in2="BackgroundImageFix" mode="normal" result="effect1_dropShadow_3046_38789"/><feBlend in="SourceGraphic" in2="effect1_dropShadow_3046_38789" mode="normal" result="shape"/></filter><linearGradient id="c" gradientUnits="userSpaceOnUse" x1="24" x2="26" y1=".000001" y2="48"><stop offset="0" stop-color="#fff" stop-opacity="0"/><stop offset="1" stop-color="#fff" stop-opacity=".12"/></linearGradient><linearGradient id="d" gradientUnits="userSpaceOnUse" x1="24" x2="24" y1="0" y2="48"><stop offset="0" stop-color="#fff" stop-opacity=".12"/><stop offset="1" stop-color="#fff" stop-opacity="0"/></linearGradient><clipPath id="e"><rect height="48" rx="12" width="48"/></clipPath><g filter="url(#a)"><g clip-path="url(#e)"><rect fill="#0A0D12" height="48" rx="12" width="48"/><path d="m0 0h48v48h-48z" fill="url(#c)"/><g fill="#fff" filter="url(#b)"><path d="m21.4297 21.4287h5.14285v5.14285h-5.14285z"/><path d="m21.4297 26.5713h5.14285v5.14285h-5.14285z" opacity=".6"/><path d="m26.5703 26.5713h5.14285v5.14285h-5.14285z" opacity=".32"/><path d="m31.7148 26.5713h5.14285v5.14285h-5.14285z" opacity=".07"/><path d="m16.2852 26.5713h5.14285v5.14285h-5.14285z" opacity=".32"/><path d="m11.1426 26.5713h5.14285v5.14285h-5.14285z" opacity=".07"/><path d="m21.4297 31.7144h5.14285v5.14285h-5.14285z" opacity=".32"/><path d="m16.2852 31.7144h5.14285v5.14285h-5.14285z" opacity=".07"/><path d="m26.5703 31.7144h5.14285v5.14285h-5.14285z" opacity=".07"/><path d="m21.4297 36.8574h5.14285v5.14285h-5.14285z" opacity=".07"/><path d="m16.2852 21.4287h5.14285v5.14285h-5.14285z" opacity=".6"/><path d="m11.1426 21.4287h5.14285v5.14285h-5.14285z" opacity=".32"/><path d="m6 21.4287h5.14285v5.14285h-5.14285z" opacity=".07"/><path d="m26.5703 21.4287h5.14285v5.14285h-5.14285z" opacity=".6"/><path d="m31.7148 21.4287h5.14285v5.14285h-5.14285z" opacity=".32"/><path d="m36.8574 21.4287h5.14285v5.14285h-5.14285z" opacity=".07"/><path d="m21.4297 16.2856h5.14285v5.14285h-5.14285z" opacity=".6"/><path d="m16.2852 16.2856h5.14285v5.14285h-5.14285z" opacity=".32"/><path d="m16.2852 11.1426h5.14285v5.14285h-5.14285z" opacity=".07"/><path d="m11.1426 16.2856h5.14285v5.14285h-5.14285z" opacity=".07"/><path d="m26.5703 16.2856h5.14285v5.14285h-5.14285z" opacity=".32"/><path d="m26.5703 11.1426h5.14285v5.14285h-5.14285z" opacity=".07"/><path d="m31.7148 16.2856h5.14285v5.14285h-5.14285z" opacity=".07"/><path d="m21.4297 11.1426h5.14285v5.14285h-5.14285z" opacity=".32"/><path d="m21.4297 6h5.14285v5.14285h-5.14285z" opacity=".07"/></g></g><rect height="46" rx="11" stroke="url(#d)" stroke-width="2" width="46" x="1" y="1"/></g><g fill="#0A0D12"><path d="m60 33.0001v-18.538h7.982c5.798 0 8.294 2.34 8.294 6.396 0 3.978-2.652 6.37-8.034 6.344h-4.498v5.798zm8.008-15.314h-4.264v6.292h4.368c2.99 0 4.342-.988 4.342-3.146 0-2.21-1.43-3.146-4.446-3.146z"/><path d="m81.8479 33.0001h-3.9v-14.95h3.9z"/><path d="m83.4676 25.5121c0-5.018 3.536-7.878 8.502-7.878 4.862 0 7.956 2.21 8.3984 6.552v.026h-4.0564v-.052c-.338-2.262-1.794-3.354-4.316-3.354-2.886 0-4.602 1.612-4.602 4.706v.208c0 2.886 1.56 4.472 4.576 4.472 2.678 0 4.03-1.144 4.368-3.432v-.026h4.0304v.052c-.338 4.342-3.3024 6.656-8.4764 6.656-5.694 0-8.424-2.834-8.424-7.696z"/><path d="m103.817 21.3781h-3.432v-3.328h3.77s.026-3.484 0-4.03h3.224v4.03h4.914v3.328h-4.914v4.446c0 1.118.104 1.924.234 2.47.312 1.04 1.222 1.274 3.12 1.274h1.56v3.432h-2.548c-4.706 0-5.928-1.716-5.928-6.526z"/><path d="m112.77 25.6161c0-5.018 3.562-7.982 8.554-7.982 1.872 0 3.406.338 4.628 1.04 2.444 1.404 3.692 3.77 3.692 6.656v1.586h-13.182c.39 2.262 1.95 3.458 4.888 3.458 2.158 0 3.354-.624 3.952-1.794h4.16c-1.17 3.25-4.03 4.862-8.32 4.862-4.94 0-8.372-2.158-8.372-7.592zm3.744-1.56h9.36c-.338-2.262-1.768-3.458-4.472-3.458-2.782 0-4.394 1.274-4.888 3.458z"/><path d="m135.094 33.0001h-3.822v-19.916h3.822z"/><path d="m135.908 33.0001 7.8-18.538h3.952l7.956 18.538h-3.926l-1.69-4.108h-8.502l-1.612 4.108zm6.838-7.254h5.954l-3.016-7.384z"/><path d="m160.251 17.8421h-4.082v-3.38h11.752v3.38h-4.056v11.622h4.056v3.536h-11.752v-3.536h4.082z"/><path d="m82.47 13.8801c0 1.3863-1.1238 2.51-2.51 2.51s-2.51-1.1237-2.51-2.51c0-1.3862 1.1238-2.51 2.51-2.51s2.51 1.1238 2.51 2.51z"/></g></svg>